<svg version="1.1" id="Layer_1" xmlns="http://www.w3.org/2000/svg" xmlns:xlink="http://www.w3.org/1999/xlink" x="0px" y="0px"
	 width="100%" viewBox="0 0 1024 1024" enable-background="new 0 0 1024 1024" xml:space="preserve">
<path fill="#000000" opacity="1.000000" stroke="none" 
	d="
M1.000000,364.000000 
	C1.000000,242.666687 1.000000,121.833359 1.000000,1.000032 
	C342.333282,1.000022 683.666565,1.000022 1025.000000,1.000011 
	C1025.000000,342.333252 1025.000000,683.666504 1025.000000,1024.999756 
	C683.666809,1024.999878 342.333618,1024.999878 1.000205,1025.000000 
	C1.000000,804.833313 1.000000,584.666687 1.000000,364.000000 
M924.972229,354.065125 
	C924.592529,333.373688 924.212830,312.682220 923.965576,291.078125 
	C923.625793,285.642426 923.644226,280.155396 922.873474,274.781525 
	C921.156860,262.813049 919.045654,250.901169 917.053894,238.152069 
	C913.663696,227.905045 911.067627,217.307220 906.726562,207.480255 
	C895.965027,183.118973 880.536438,161.986450 860.030518,144.790451 
	C857.302734,142.502991 854.053589,140.837311 850.766357,138.240707 
	C836.932129,128.019577 822.112488,119.679977 805.812927,113.966476 
	C777.711792,104.116158 748.453674,101.290207 719.090637,101.196518 
	C589.517822,100.783112 459.942749,100.868973 330.369232,101.127708 
	C309.338013,101.169693 288.222168,102.135460 267.310608,104.282776 
	C252.221390,105.832237 237.099335,109.017426 222.547333,113.342018 
	C204.859634,118.598465 188.562347,127.336830 173.285645,139.064285 
	C152.507080,154.511520 136.180481,173.721863 124.063324,197.350311 
	C105.666176,231.295395 102.568054,268.449524 101.087349,306.905212 
	C101.115860,326.600830 101.144379,346.296448 101.017883,366.919067 
	C101.069832,385.942383 101.121780,404.965698 101.016098,424.915955 
	C101.067223,445.606567 101.118347,466.297180 101.013397,487.915131 
	C101.064583,509.272919 101.115761,530.630676 101.014481,552.916260 
	C101.066689,574.273865 101.118889,595.631531 101.022331,617.917480 
	C101.072067,637.939819 101.121803,657.962097 101.020767,678.913208 
	C101.435982,699.268311 101.851196,719.623474 102.117767,740.839600 
	C103.097748,750.021301 103.403526,759.338806 105.218124,768.352478 
	C107.840393,781.377869 111.556198,794.183167 114.891983,807.840637 
	C120.921913,823.997620 128.767517,839.153870 139.764542,853.299805 
	C143.665817,858.009094 147.307022,862.966248 151.515701,867.382568 
	C165.771408,882.341980 181.875427,894.838440 201.377487,903.761353 
	C209.836441,907.189331 218.112534,911.195801 226.788193,913.938293 
	C254.162933,922.591553 282.569214,924.732483 310.990082,924.803833 
	C441.070770,925.130371 571.152649,924.945435 701.234070,925.015198 
	C725.711975,925.028320 750.099976,923.857605 774.269775,919.879333 
	C792.040649,916.954285 809.287170,912.195862 825.828857,903.087830 
	C843.462341,894.470337 859.299805,883.384460 873.266235,868.552429 
	C889.034912,852.142517 901.123108,833.384277 909.732117,811.585144 
	C919.103271,787.945312 922.532104,763.171509 923.916870,737.096741 
	C924.222839,714.726501 924.528809,692.356201 924.956238,669.057434 
	C924.916870,647.035278 924.877502,625.013123 924.965820,602.062500 
	C924.923462,582.370911 924.881042,562.679382 924.966248,542.059814 
	C924.922424,521.368835 924.878540,500.677887 924.964355,479.059265 
	C924.920715,456.702667 924.877075,434.346100 924.966858,411.061890 
	C924.922363,392.372040 924.877869,373.682159 924.972229,354.065125 
z"/>
<path fill="#C7DFE7" opacity="1.000000" stroke="none" 
	d="
M173.945358,138.862808 
	C188.562347,127.336830 204.859634,118.598465 222.547333,113.342018 
	C237.099335,109.017426 252.221390,105.832237 267.310608,104.282776 
	C288.222168,102.135460 309.338013,101.169693 330.369232,101.127708 
	C459.942749,100.868973 589.517822,100.783112 719.090637,101.196518 
	C748.453674,101.290207 777.711792,104.116158 805.812927,113.966476 
	C822.112488,119.679977 836.932129,128.019577 850.817627,138.927887 
	C849.187012,140.382767 847.548828,141.641006 845.812378,141.795593 
	C843.580017,141.994293 841.260986,141.006714 838.993225,141.065765 
	C834.561523,141.181152 830.136780,141.972717 825.714111,141.932541 
	C818.384888,141.865952 811.061096,141.254868 803.731018,141.148178 
	C802.477356,141.129929 801.203674,142.481155 799.548584,143.172791 
	C797.888306,142.756287 796.619385,142.364578 795.348999,141.977432 
	C770.353699,134.360382 744.555786,133.143372 718.739014,133.111420 
	C581.634949,132.941681 444.530487,132.957367 307.426300,133.094208 
	C280.263214,133.121323 253.192795,134.706055 226.701721,142.683289 
	C219.087982,142.510239 211.755188,142.587418 204.422195,142.629730 
	C200.152573,142.654358 195.881531,142.681229 191.613098,142.601700 
	C186.677551,142.509720 181.726257,142.483459 176.824081,141.999954 
	C175.771606,141.896149 174.900177,139.956680 173.945358,138.862808 
z"/>
<path fill="#676666" opacity="1.000000" stroke="none" 
	d="
M825.131836,903.263977 
	C809.287170,912.195862 792.040649,916.954285 774.269775,919.879333 
	C750.099976,923.857605 725.711975,925.028320 701.234070,925.015198 
	C571.152649,924.945435 441.070770,925.130371 310.990082,924.803833 
	C282.569214,924.732483 254.162933,922.591553 226.788193,913.938293 
	C218.112534,911.195801 209.836441,907.189331 201.241638,903.139526 
	C202.550049,902.117371 203.993988,901.381714 205.438599,901.380371 
	C209.513321,901.376587 213.587143,901.786621 217.663452,901.828918 
	C225.182922,901.906860 232.704498,901.894104 240.224075,901.813721 
	C246.287140,901.748840 252.347900,901.487000 258.410950,901.392883 
	C262.212982,901.333862 266.017944,901.390076 269.820526,901.455505 
	C273.901886,901.525635 277.981476,901.729797 282.062775,901.763611 
	C289.419037,901.824646 296.776428,901.858704 304.132477,901.797119 
	C310.196167,901.746338 316.258057,901.508850 322.321686,901.416016 
	C326.124115,901.357788 329.929596,901.355042 333.731415,901.435364 
	C337.649139,901.518066 341.567719,901.920959 345.479401,901.845215 
	C351.869415,901.721497 358.251678,901.190308 364.641632,901.074280 
	C372.654388,900.928589 380.671967,900.979919 388.686646,901.046448 
	C391.831848,901.072510 394.972992,901.418579 398.119141,901.531616 
	C402.037628,901.672424 405.962280,901.861511 409.879120,901.780701 
	C416.270569,901.648865 422.655945,901.201904 429.047333,901.096313 
	C436.728027,900.969421 444.412689,901.015686 452.094879,901.078491 
	C455.407654,901.105591 458.717499,901.391663 462.030518,901.507507 
	C465.948761,901.644531 469.872009,901.874939 473.787628,901.795410 
	C480.178741,901.665527 486.563416,901.200195 492.954498,901.090759 
	C500.801392,900.956421 508.652039,901.027100 516.501038,901.041443 
	C519.328674,901.046631 522.156006,901.180664 524.983826,901.193848 
	C530.023621,901.217407 535.063843,901.178589 540.103760,901.193542 
	C546.181702,901.211609 552.260620,901.196106 558.337036,901.310486 
	C564.397156,901.424561 570.453491,901.776733 576.513611,901.850708 
	C583.715759,901.938599 590.920166,901.826111 598.123596,901.828430 
	C603.875366,901.830322 609.629639,901.992615 615.378113,901.866699 
	C621.268127,901.737732 627.150696,901.167175 633.039612,901.110107 
	C641.566589,901.027527 650.096252,901.250061 658.625000,901.308777 
	C663.542114,901.342590 668.461060,901.236694 673.376709,901.325867 
	C679.437622,901.435669 685.497864,901.881287 691.554871,901.822144 
	C699.610657,901.743469 707.663757,901.078369 715.716553,901.105957 
	C724.544189,901.136108 733.371216,901.944702 742.196594,901.911987 
	C753.507385,901.870117 764.814941,901.177734 776.126831,901.065063 
	C781.525391,901.011292 786.930664,901.913025 792.333130,901.915222 
	C802.156006,901.919250 811.978760,901.512878 821.802429,901.461670 
	C822.909058,901.455872 824.021912,902.634583 825.131836,903.263977 
z"/>
<path fill="#69696A" opacity="1.000000" stroke="none" 
	d="
M825.480347,903.175903 
	C824.021912,902.634583 822.909058,901.455872 821.802429,901.461670 
	C811.978760,901.512878 802.156006,901.919250 792.333130,901.915222 
	C786.930664,901.913025 781.525391,901.011292 776.126831,901.065063 
	C764.814941,901.177734 753.507385,901.870117 742.196594,901.911987 
	C733.371216,901.944702 724.544189,901.136108 715.716553,901.105957 
	C707.663757,901.078369 699.610657,901.743469 691.554871,901.822144 
	C685.497864,901.881287 679.437622,901.435669 673.376709,901.325867 
	C668.461060,901.236694 663.542114,901.342590 658.625000,901.308777 
	C650.096252,901.250061 641.566589,901.027527 633.039612,901.110107 
	C627.150696,901.167175 621.268127,901.737732 615.378113,901.866699 
	C609.629639,901.992615 603.875366,901.830322 598.123596,901.828430 
	C590.920166,901.826111 583.715759,901.938599 576.513611,901.850708 
	C570.453491,901.776733 564.397156,901.424561 558.337036,901.310486 
	C552.260620,901.196106 546.181702,901.211609 540.103760,901.193542 
	C535.063843,901.178589 530.023621,901.217407 524.983826,901.193848 
	C522.156006,901.180664 519.328674,901.046631 516.501038,901.041443 
	C508.652039,901.027100 500.801392,900.956421 492.954498,901.090759 
	C486.563416,901.200195 480.178741,901.665527 473.787628,901.795410 
	C469.872009,901.874939 465.948761,901.644531 462.030518,901.507507 
	C458.717499,901.391663 455.407654,901.105591 452.094879,901.078491 
	C444.412689,901.015686 436.728027,900.969421 429.047333,901.096313 
	C422.655945,901.201904 416.270569,901.648865 409.879120,901.780701 
	C405.962280,901.861511 402.037628,901.672424 398.119141,901.531616 
	C394.972992,901.418579 391.831848,901.072510 388.686646,901.046448 
	C380.671967,900.979919 372.654388,900.928589 364.641632,901.074280 
	C358.251678,901.190308 351.869415,901.721497 345.479401,901.845215 
	C341.567719,901.920959 337.649139,901.518066 333.731415,901.435364 
	C329.929596,901.355042 326.124115,901.357788 322.321686,901.416016 
	C316.258057,901.508850 310.196167,901.746338 304.132477,901.797119 
	C296.776428,901.858704 289.419037,901.824646 282.062775,901.763611 
	C277.981476,901.729797 273.901886,901.525635 269.820526,901.455505 
	C266.017944,901.390076 262.212982,901.333862 258.410950,901.392883 
	C252.347900,901.487000 246.287140,901.748840 240.224075,901.813721 
	C232.704498,901.894104 225.182922,901.906860 217.663452,901.828918 
	C213.587143,901.786621 209.513321,901.376587 205.438599,901.380371 
	C203.993988,901.381714 202.550049,902.117371 201.002106,902.897644 
	C181.875427,894.838440 165.771408,882.341980 151.515701,867.382568 
	C147.307022,862.966248 143.665817,858.009094 139.953644,852.647644 
	C147.419296,851.928467 154.695724,851.830322 161.972412,851.806885 
	C165.967392,851.794067 170.531143,853.290649 172.459961,847.787842 
	C183.170181,858.870667 195.220520,867.664246 208.339203,874.956604 
	C233.053513,888.694824 260.386078,891.276306 287.841400,892.914246 
	C296.801270,893.448792 305.819824,893.000549 314.811523,893.000610 
	C446.287933,893.001160 577.764343,893.033142 709.240723,892.953186 
	C722.509338,892.945129 735.812500,892.730103 749.035400,891.747070 
	C760.429749,890.900085 771.807800,889.234436 783.058044,887.188660 
	C799.933533,884.119995 815.071106,876.501892 830.126221,868.066528 
	C836.043701,868.812317 841.570007,869.842957 847.102905,869.878967 
	C855.638733,869.934570 864.178955,869.309143 872.717346,868.972595 
	C859.299805,883.384460 843.462341,894.470337 825.480347,903.175903 
z"/>
<path fill="#C0D8DE" opacity="1.000000" stroke="none" 
	d="
M799.939270,143.199738 
	C801.203674,142.481155 802.477356,141.129929 803.731018,141.148178 
	C811.061096,141.254868 818.384888,141.865952 825.714111,141.932541 
	C830.136780,141.972717 834.561523,141.181152 838.993225,141.065765 
	C841.260986,141.006714 843.580017,141.994293 845.812378,141.795593 
	C847.548828,141.641006 849.187012,140.382767 850.957397,139.249359 
	C854.053589,140.837311 857.302734,142.502991 860.030518,144.790451 
	C880.536438,161.986450 895.965027,183.118973 906.726562,207.480255 
	C911.067627,217.307220 913.663696,227.905045 916.716492,238.711487 
	C912.873047,239.034912 909.370239,238.717300 905.860352,238.580551 
	C899.325317,238.325958 892.786255,238.176682 886.115479,237.616974 
	C877.607544,207.558136 862.292786,182.191040 837.123230,164.028702 
	C825.678040,155.769913 812.390869,150.063766 799.939270,143.199738 
z"/>
<path fill="#B5CAD0" opacity="1.000000" stroke="none" 
	d="
M101.277267,305.982727 
	C102.568054,268.449524 105.666176,231.295395 124.649017,197.233307 
	C135.820404,197.409943 146.406082,197.703583 156.943222,198.346863 
	C139.539719,224.891037 135.737488,254.854996 133.070053,285.080292 
	C132.488312,291.672180 132.905701,298.352234 132.431503,304.993164 
	C121.759132,305.323975 111.518196,305.653351 101.277267,305.982727 
z"/>
<path fill="#C0D8DE" opacity="1.000000" stroke="none" 
	d="
M156.991760,197.997223 
	C146.406082,197.703583 135.820404,197.409943 124.847961,196.971436 
	C136.180481,173.721863 152.507080,154.511520 173.615509,138.963547 
	C174.900177,139.956680 175.771606,141.896149 176.824081,141.999954 
	C181.726257,142.483459 186.677551,142.509720 191.613098,142.601700 
	C195.881531,142.681229 200.152573,142.654358 204.422195,142.629730 
	C211.755188,142.587418 219.087982,142.510239 226.415649,142.891220 
	C216.239151,148.466339 205.713287,153.008209 195.976440,158.862427 
	C179.807922,168.583664 167.568512,182.538574 156.991760,197.997223 
z"/>
<path fill="#777A7C" opacity="1.000000" stroke="none" 
	d="
M923.777832,737.981079 
	C922.532104,763.171509 919.103271,787.945312 909.015808,811.818970 
	C901.468323,812.035034 894.625916,812.240906 887.811218,811.897034 
	C884.795654,811.744873 881.836304,810.479675 878.897827,809.363525 
	C881.330505,801.949463 884.691650,795.054749 885.905823,787.800781 
	C888.669312,771.290405 890.378845,754.603516 892.953003,737.988525 
	C903.518799,737.986084 913.648315,737.983582 923.777832,737.981079 
z"/>
<path fill="#9FAEB2" opacity="1.000000" stroke="none" 
	d="
M924.833496,411.989502 
	C924.877075,434.346100 924.920715,456.702667 924.503906,479.509033 
	C922.425232,479.657379 920.800049,479.064453 919.190063,479.103149 
	C910.513306,479.311646 901.840271,479.676971 893.101135,479.524231 
	C893.079712,456.370087 893.123108,433.679840 893.603516,410.992615 
	C897.791260,411.300873 901.537659,411.778748 905.293640,411.873260 
	C911.803772,412.037079 918.319885,411.963501 924.833496,411.989502 
z"/>
<path fill="#808687" opacity="1.000000" stroke="none" 
	d="
M923.847351,737.538940 
	C913.648315,737.983582 903.518799,737.986084 892.906372,737.575745 
	C892.600037,731.857971 892.892151,726.553894 892.931885,721.247925 
	C893.059814,704.161072 893.094788,687.073547 893.573730,669.989746 
	C904.266113,669.990845 914.550415,669.988403 924.834717,669.985962 
	C924.528809,692.356201 924.222839,714.726501 923.847351,737.538940 
z"/>
<path fill="#889093" opacity="1.000000" stroke="none" 
	d="
M924.895508,669.521729 
	C914.550415,669.988403 904.266113,669.990845 893.513062,669.525452 
	C893.083618,647.035339 893.123047,625.013123 893.559082,602.990906 
	C895.565125,602.732666 897.179382,602.225891 898.783081,602.257507 
	C907.469543,602.428528 916.153381,602.732727 924.838135,602.990967 
	C924.877502,625.013123 924.916870,647.035278 924.895508,669.521729 
z"/>
<path fill="#777A7C" opacity="1.000000" stroke="none" 
	d="
M114.805435,807.082336 
	C111.556198,794.183167 107.840393,781.377869 105.218124,768.352478 
	C103.403526,759.338806 103.097748,750.021301 102.586151,740.390686 
	C113.201462,739.623779 123.348381,739.305847 133.614700,739.437256 
	C134.720306,762.011780 137.285736,783.860168 144.839020,805.072266 
	C141.835129,805.857300 139.110352,806.691467 136.358368,806.793945 
	C129.180420,807.061157 121.990547,807.007812 114.805435,807.082336 
z"/>
<path fill="#6F7172" opacity="1.000000" stroke="none" 
	d="
M878.851440,809.719727 
	C881.836304,810.479675 884.795654,811.744873 887.811218,811.897034 
	C894.625916,812.240906 901.468323,812.035034 908.787842,812.083984 
	C901.123108,833.384277 889.034912,852.142517 872.991821,868.762512 
	C864.178955,869.309143 855.638733,869.934570 847.102905,869.878967 
	C841.570007,869.842957 836.043701,868.812317 830.332031,867.789612 
	C838.282471,860.371216 846.792847,853.778381 854.457214,846.316467 
	C865.132141,835.923340 871.994080,822.773621 878.851440,809.719727 
z"/>
<path fill="#8F989B" opacity="1.000000" stroke="none" 
	d="
M101.171097,616.989136 
	C101.118889,595.631531 101.066689,574.273865 101.529182,552.455566 
	C108.431007,551.664062 114.815590,551.264771 121.206192,551.028137 
	C125.076988,550.884766 128.957108,550.993286 132.909119,551.452576 
	C132.933014,573.274536 132.880814,594.632446 132.420883,615.992981 
	C121.732468,616.326721 111.451782,616.657959 101.171097,616.989136 
z"/>
<path fill="#97A2A6" opacity="1.000000" stroke="none" 
	d="
M132.833038,550.988586 
	C128.957108,550.993286 125.076988,550.884766 121.206192,551.028137 
	C114.815590,551.264771 108.431007,551.664062 101.605415,551.991638 
	C101.115761,530.630676 101.064583,509.272919 101.487450,487.436218 
	C103.584160,486.656158 105.203827,486.114227 106.829964,486.094086 
	C115.495888,485.986694 124.163422,486.009888 132.908417,486.451630 
	C132.935303,508.273102 132.884171,529.630859 132.833038,550.988586 
z"/>
<path fill="#97A2A6" opacity="1.000000" stroke="none" 
	d="
M893.165955,479.988190 
	C901.840271,479.676971 910.513306,479.311646 919.190063,479.103149 
	C920.800049,479.064453 922.425232,479.657379 924.439087,479.972839 
	C924.878540,500.677887 924.922424,521.368835 924.490173,542.527954 
	C913.729919,542.993652 903.445801,542.991333 893.097900,542.524841 
	C893.078125,521.369873 893.122070,500.679047 893.165955,479.988190 
z"/>
<path fill="#9FAEB2" opacity="1.000000" stroke="none" 
	d="
M132.830399,485.987885 
	C124.163422,486.009888 115.495888,485.986694 106.829964,486.094086 
	C105.203827,486.114227 103.584160,486.656158 101.565491,486.972534 
	C101.118347,466.297180 101.067223,445.606567 101.552368,424.454193 
	C112.334427,423.991333 122.580215,423.990234 132.904816,424.452667 
	C132.932541,445.273438 132.881470,465.630646 132.830399,485.987885 
z"/>
<path fill="#889093" opacity="1.000000" stroke="none" 
	d="
M101.096710,617.453308 
	C111.451782,616.657959 121.732468,616.326721 132.495209,616.457153 
	C132.927475,637.274414 132.877670,657.630188 132.378174,677.989136 
	C121.676170,677.989685 111.423851,677.987061 101.171539,677.984436 
	C101.121803,657.962097 101.072067,637.939819 101.096710,617.453308 
z"/>
<path fill="#808687" opacity="1.000000" stroke="none" 
	d="
M101.096153,678.448853 
	C111.423851,677.987061 121.676170,677.989685 132.453476,678.453430 
	C133.150742,698.938965 133.323013,718.963440 133.495300,738.987854 
	C123.348381,739.305847 113.201462,739.623779 102.660477,739.960205 
	C101.851196,719.623474 101.435982,699.268311 101.096153,678.448853 
z"/>
<path fill="#ADBFC5" opacity="1.000000" stroke="none" 
	d="
M101.182312,306.443970 
	C111.518196,305.653351 121.759132,305.323975 132.513031,305.456116 
	C132.959564,325.942688 132.893143,345.967773 132.404160,365.994629 
	C127.258125,366.328979 122.533455,366.941223 117.811447,366.921417 
	C112.264061,366.898163 106.718971,366.326080 101.172890,365.992065 
	C101.144379,346.296448 101.115860,326.600830 101.182312,306.443970 
z"/>
<path fill="#ADBFC5" opacity="1.000000" stroke="none" 
	d="
M923.833130,291.990784 
	C924.212830,312.682220 924.592529,333.373688 924.451782,354.530823 
	C913.676575,354.995361 903.421875,354.994232 893.097778,354.529449 
	C893.020874,334.377045 893.013367,314.688293 893.444824,294.999878 
	C900.940063,294.670532 908.016907,293.887634 915.044006,294.205597 
	C918.470886,294.360687 921.316895,294.448517 923.833130,291.990784 
z"/>
<path fill="#8F989B" opacity="1.000000" stroke="none" 
	d="
M893.161621,542.988953 
	C903.445801,542.991333 913.729919,542.993652 924.426392,542.991943 
	C924.881042,562.679382 924.923462,582.370911 924.901978,602.526733 
	C916.153381,602.732727 907.469543,602.428528 898.783081,602.257507 
	C897.179382,602.225891 895.565125,602.732666 893.495239,602.526672 
	C893.077026,582.371216 893.119324,562.680115 893.161621,542.988953 
z"/>
<path fill="#A8B8BD" opacity="1.000000" stroke="none" 
	d="
M101.095383,366.455566 
	C106.718971,366.326080 112.264061,366.898163 117.811447,366.921417 
	C122.533455,366.941223 127.258125,366.328979 132.481659,366.458099 
	C132.929794,385.942902 132.877899,404.966034 132.826004,423.989136 
	C122.580215,423.990234 112.334427,423.991333 101.631180,423.990723 
	C101.121780,404.965698 101.069832,385.942383 101.095383,366.455566 
z"/>
<path fill="#A8B8BD" opacity="1.000000" stroke="none" 
	d="
M893.167175,354.993134 
	C903.421875,354.994232 913.676575,354.995361 924.382324,354.994385 
	C924.877869,373.682159 924.922363,392.372040 924.900146,411.525696 
	C918.319885,411.963501 911.803772,412.037079 905.293640,411.873260 
	C901.537659,411.778748 897.791260,411.300873 893.536987,410.528778 
	C893.077942,391.705688 893.122559,373.349426 893.167175,354.993134 
z"/>
<path fill="#B5CAD0" opacity="1.000000" stroke="none" 
	d="
M923.899353,291.534454 
	C921.316895,294.448517 918.470886,294.360687 915.044006,294.205597 
	C908.016907,293.887634 900.940063,294.670532 893.329651,294.604736 
	C890.600037,275.467346 888.424438,256.725433 886.248840,237.983551 
	C892.786255,238.176682 899.325317,238.325958 905.860352,238.580551 
	C909.370239,238.717300 912.873047,239.034912 916.737183,239.118576 
	C919.045654,250.901169 921.156860,262.813049 922.873474,274.781525 
	C923.644226,280.155396 923.625793,285.642426 923.899353,291.534454 
z"/>
<path fill="#6F7172" opacity="1.000000" stroke="none" 
	d="
M114.848709,807.461487 
	C121.990547,807.007812 129.180420,807.061157 136.358368,806.793945 
	C139.110352,806.691467 141.835129,805.857300 145.097778,805.320557 
	C152.038834,820.917053 161.001740,834.951904 172.167038,847.605408 
	C170.531143,853.290649 165.967392,851.794067 161.972412,851.806885 
	C154.695724,851.830322 147.419296,851.928467 139.870590,852.330078 
	C128.767517,839.153870 120.921913,823.997620 114.848709,807.461487 
z"/>
<path fill="#000000" opacity="1.000000" stroke="none" 
	d="
M172.459961,847.787842 
	C161.001740,834.951904 152.038834,820.917053 145.364487,805.036194 
	C137.285736,783.860168 134.720306,762.011780 133.614700,739.437256 
	C133.323013,718.963440 133.150742,698.938965 132.903168,678.450195 
	C132.877670,657.630188 132.927475,637.274414 132.902954,616.454590 
	C132.880814,594.632446 132.933014,573.274536 132.909119,551.452576 
	C132.884171,529.630859 132.935303,508.273102 132.908417,486.451630 
	C132.881470,465.630646 132.932541,445.273438 132.904816,424.452667 
	C132.877899,404.966034 132.929794,385.942902 132.904205,366.456299 
	C132.893143,345.967773 132.959564,325.942688 132.944473,305.454651 
	C132.905701,298.352234 132.488312,291.672180 133.070053,285.080292 
	C135.737488,254.854996 139.539719,224.891037 156.943222,198.346863 
	C167.568512,182.538574 179.807922,168.583664 195.976440,158.862427 
	C205.713287,153.008209 216.239151,148.466339 226.696533,143.126816 
	C253.192795,134.706055 280.263214,133.121323 307.426300,133.094208 
	C444.530487,132.957367 581.634949,132.941681 718.739014,133.111420 
	C744.555786,133.143372 770.353699,134.360382 795.348999,141.977432 
	C796.619385,142.364578 797.888306,142.756287 799.548584,143.172791 
	C812.390869,150.063766 825.678040,155.769913 837.123230,164.028702 
	C862.292786,182.191040 877.607544,207.558136 886.115479,237.616974 
	C888.424438,256.725433 890.600037,275.467346 892.890747,294.604401 
	C893.013367,314.688293 893.020874,334.377045 893.097778,354.529449 
	C893.122559,373.349426 893.077942,391.705688 893.099915,410.525818 
	C893.123108,433.679840 893.079712,456.370087 893.101135,479.524231 
	C893.122070,500.679047 893.078125,521.369873 893.097900,542.524841 
	C893.119324,562.680115 893.077026,582.371216 893.098633,602.526611 
	C893.123047,625.013123 893.083618,647.035339 893.104980,669.521973 
	C893.094788,687.073547 893.059814,704.161072 892.931885,721.247925 
	C892.892151,726.553894 892.600037,731.857971 892.470093,737.575684 
	C890.378845,754.603516 888.669312,771.290405 885.905823,787.800781 
	C884.691650,795.054749 881.330505,801.949463 878.897827,809.363525 
	C871.994080,822.773621 865.132141,835.923340 854.457214,846.316467 
	C846.792847,853.778381 838.282471,860.371216 829.943787,867.628784 
	C815.071106,876.501892 799.933533,884.119995 783.058044,887.188660 
	C771.807800,889.234436 760.429749,890.900085 749.035400,891.747070 
	C735.812500,892.730103 722.509338,892.945129 709.240723,892.953186 
	C577.764343,893.033142 446.287933,893.001160 314.811523,893.000610 
	C305.819824,893.000549 296.801270,893.448792 287.841400,892.914246 
	C260.386078,891.276306 233.053513,888.694824 208.339203,874.956604 
	C195.220520,867.664246 183.170181,858.870667 172.459961,847.787842 
M465.500000,193.000610 
	C411.839233,193.001450 358.177490,192.832016 304.518494,193.139755 
	C293.118011,193.205139 281.554413,194.088882 270.365936,196.191666 
	C240.667221,201.773315 218.238419,217.639114 204.377655,245.058792 
	C195.236374,263.142273 193.196213,282.668488 193.157074,302.266693 
	C192.876541,442.755127 192.941345,583.244507 193.138168,723.733215 
	C193.153198,734.462524 194.111420,745.371155 196.202560,755.883850 
	C203.196594,791.044617 223.558899,815.077820 257.774384,826.776550 
	C272.589722,831.842102 288.105347,832.857544 303.516907,832.879395 
	C443.172394,833.077698 582.828369,833.065430 722.483826,832.863464 
	C733.712769,832.847229 745.142212,831.969177 756.128906,829.756042 
	C791.251892,822.680969 815.260925,802.255737 826.847473,767.985657 
	C831.806152,753.319214 832.843628,737.965576 832.867249,722.731750 
	C833.083740,582.909668 833.063232,443.087067 832.864075,303.264954 
	C832.848328,292.202148 831.933838,280.951996 829.787842,270.115509 
	C822.823608,234.949570 802.472351,210.821335 768.209534,199.263733 
	C751.632812,193.672012 734.264038,193.083755 716.980347,193.057709 
	C633.487061,192.931885 549.993469,193.000763 465.500000,193.000610 
z"/>
<path fill="#131C1F" opacity="1.000000" stroke="none" 
	d="
M466.000000,193.000610 
	C549.993469,193.000763 633.487061,192.931885 716.980347,193.057709 
	C734.264038,193.083755 751.632812,193.672012 768.209534,199.263733 
	C802.472351,210.821335 822.823608,234.949570 829.787842,270.115509 
	C831.933838,280.951996 832.848328,292.202148 832.864075,303.264954 
	C833.063232,443.087067 833.083740,582.909668 832.867249,722.731750 
	C832.843628,737.965576 831.806152,753.319214 826.847473,767.985657 
	C815.260925,802.255737 791.251892,822.680969 756.128906,829.756042 
	C745.142212,831.969177 733.712769,832.847229 722.483826,832.863464 
	C582.828369,833.065430 443.172394,833.077698 303.516907,832.879395 
	C288.105347,832.857544 272.589722,831.842102 257.774384,826.776550 
	C223.558899,815.077820 203.196594,791.044617 196.202560,755.883850 
	C194.111420,745.371155 193.153198,734.462524 193.138168,723.733215 
	C192.941345,583.244507 192.876541,442.755127 193.157074,302.266693 
	C193.196213,282.668488 195.236374,263.142273 204.377655,245.058792 
	C218.238419,217.639114 240.667221,201.773315 270.365936,196.191666 
	C281.554413,194.088882 293.118011,193.205139 304.518494,193.139755 
	C358.177490,192.832016 411.839233,193.001450 466.000000,193.000610 
M369.000000,331.500000 
	C369.000061,355.491791 369.107880,379.484467 368.902527,403.474518 
	C368.864807,407.879364 370.101288,409.132294 374.517670,409.097778 
	C400.173950,408.897461 425.833405,408.896637 451.489655,409.098450 
	C455.917450,409.133270 457.104279,407.857269 457.092957,403.467743 
	C456.950897,348.487030 456.950439,293.505737 457.093536,238.525024 
	C457.104980,234.124405 455.899231,232.867691 451.482544,232.902176 
	C425.826263,233.102585 400.166809,233.103424 374.510559,232.901627 
	C370.083130,232.866806 368.878387,234.140015 368.904327,238.532227 
	C369.085510,269.187256 369.000061,299.843903 369.000000,331.500000 
M302.429016,312.076599 
	C293.535828,308.354065 284.580841,304.770386 275.774933,300.851715 
	C271.229248,298.828857 268.123688,295.500641 268.934967,289.904968 
	C269.728241,284.433167 273.140503,280.746307 278.210724,280.096588 
	C284.523315,279.287659 291.288544,278.767242 297.362854,280.209229 
	C304.107422,281.810394 310.293671,285.763458 317.100647,288.864532 
	C320.627838,284.795929 324.397217,280.447937 328.188324,276.074860 
	C319.077789,266.577484 308.363647,261.415741 295.602905,259.576355 
	C295.602905,250.506561 295.602905,241.927338 295.602905,233.325745 
	C289.950989,233.325745 284.861023,233.325745 279.194611,233.325745 
	C279.194611,240.565079 278.942078,247.529663 279.290619,254.464035 
	C279.495270,258.536011 278.324371,260.208344 274.172516,261.095703 
	C269.536072,262.086609 264.905579,263.885193 260.744781,266.186218 
	C243.437286,275.757843 239.360107,302.194916 257.971313,314.459167 
	C265.534912,319.443359 274.087341,322.939758 282.238586,327.015656 
	C289.213684,330.503479 296.509796,333.428070 303.195312,337.392059 
	C308.868347,340.755829 310.160706,348.296295 305.814819,353.002869 
	C303.205383,355.828888 299.101746,358.044983 295.309631,358.860107 
	C285.264038,361.019379 275.426483,359.255829 266.169159,354.824371 
	C260.978088,352.339417 255.946671,349.520996 250.621124,346.736633 
	C247.085648,352.097504 243.735458,357.177460 240.288498,362.404114 
	C251.832077,372.156281 264.981567,376.780640 279.327881,379.162170 
	C279.327881,389.158264 279.327881,398.596130 279.327881,408.306763 
	C284.978882,408.306763 290.186707,408.306763 295.845337,408.306763 
	C295.845337,399.470490 295.945282,391.002625 295.791046,382.539398 
	C295.737091,379.579742 296.518768,378.345428 299.660889,377.514923 
	C305.071991,376.084595 310.580994,374.310028 315.424072,371.573914 
	C332.788879,361.763672 337.432556,337.107361 321.749115,323.782501 
	C316.267456,319.125214 309.379822,316.122772 302.429016,312.076599 
z"/>
<path fill="#096310" opacity="1.000000" stroke="none" 
	d="
M369.000000,331.000000 
	C369.000061,299.843903 369.085510,269.187256 368.904327,238.532227 
	C368.878387,234.140015 370.083130,232.866806 374.510559,232.901627 
	C400.166809,233.103424 425.826263,233.102585 451.482544,232.902176 
	C455.899231,232.867691 457.104980,234.124405 457.093536,238.525024 
	C456.950439,293.505737 456.950897,348.487030 457.092957,403.467743 
	C457.104279,407.857269 455.917450,409.133270 451.489655,409.098450 
	C425.833405,408.896637 400.173950,408.897461 374.517670,409.097778 
	C370.101288,409.132294 368.864807,407.879364 368.902527,403.474518 
	C369.107880,379.484467 369.000061,355.491791 369.000000,331.000000 
z"/>
<path fill="#05E217" opacity="1.000000" stroke="none" 
	d="
M302.781616,312.220612 
	C309.379822,316.122772 316.267456,319.125214 321.749115,323.782501 
	C337.432556,337.107361 332.788879,361.763672 315.424072,371.573914 
	C310.580994,374.310028 305.071991,376.084595 299.660889,377.514923 
	C296.518768,378.345428 295.737091,379.579742 295.791046,382.539398 
	C295.945282,391.002625 295.845337,399.470490 295.845337,408.306763 
	C290.186707,408.306763 284.978882,408.306763 279.327881,408.306763 
	C279.327881,398.596130 279.327881,389.158264 279.327881,379.162170 
	C264.981567,376.780640 251.832077,372.156281 240.288498,362.404114 
	C243.735458,357.177460 247.085648,352.097504 250.621124,346.736633 
	C255.946671,349.520996 260.978088,352.339417 266.169159,354.824371 
	C275.426483,359.255829 285.264038,361.019379 295.309631,358.860107 
	C299.101746,358.044983 303.205383,355.828888 305.814819,353.002869 
	C310.160706,348.296295 308.868347,340.755829 303.195312,337.392059 
	C296.509796,333.428070 289.213684,330.503479 282.238586,327.015656 
	C274.087341,322.939758 265.534912,319.443359 257.971313,314.459167 
	C239.360107,302.194916 243.437286,275.757843 260.744781,266.186218 
	C264.905579,263.885193 269.536072,262.086609 274.172516,261.095703 
	C278.324371,260.208344 279.495270,258.536011 279.290619,254.464035 
	C278.942078,247.529663 279.194611,240.565079 279.194611,233.325745 
	C284.861023,233.325745 289.950989,233.325745 295.602905,233.325745 
	C295.602905,241.927338 295.602905,250.506561 295.602905,259.576355 
	C308.363647,261.415741 319.077789,266.577484 328.188324,276.074860 
	C324.397217,280.447937 320.627838,284.795929 317.100647,288.864532 
	C310.293671,285.763458 304.107422,281.810394 297.362854,280.209229 
	C291.288544,278.767242 284.523315,279.287659 278.210724,280.096588 
	C273.140503,280.746307 269.728241,284.433167 268.934967,289.904968 
	C268.123688,295.500641 271.229248,298.828857 275.774933,300.851715 
	C284.580841,304.770386 293.535828,308.354065 302.781616,312.220612 
z"/>
</svg>