<svg height="48pt" viewBox="0 0 48 48" width="48pt" xmlns="http://www.w3.org/2000/svg" xmlns:xlink="http://www.w3.org/1999/xlink"><linearGradient id="a" gradientTransform="matrix(43.403 0 0 44.88 2.247 1.554)" gradientUnits="userSpaceOnUse" x1="-.014458" x2="1.016457" y1=".009839" y2="1.072293"><stop offset="0" stop-color="#f9d423"/><stop offset=".51562375651" stop-color="#ff4e50"/><stop offset=".99130434783" stop-color="#8a2387"/></linearGradient><path d="m12.446 12.5c-.944.678-2.259.464-2.934-.477-.674-.942-.456-2.256.488-2.934l12.065-7.09c.998-.587 2.624-.594 3.627-.014l18.14 10.473c1.004.579 1.818 1.99 1.818 3.148v18.964c0 1.158-.817 2.565-1.823 3.139l-14.856 8.477c-1.006.574-2.022.121-2.267-1.011l-.161-.746c-.245-1.132.369-2.524 1.371-3.106l13.538-7.866v-17.525l-17.326-10.001zm5.763 27.6c.99.602 1.31 1.896.714 2.886-.597.99-1.885 1.31-2.876.714l-11.967-6.671c-1.011-.564-1.833-1.962-1.833-3.121v-15.136c0-1.158.94-2.115 2.099-2.135 1.158-.021 2.099.903 2.099 2.062v14.947zm-.209-21.6c-1.104 0-2-.896-2-2 0-1.104.896-2 2-2h14.16c1.104 0 1.44.7.751 1.562l-10.751 13.438h7.84c1.104 0 2 .896 2 2 0 1.104-.896 2-2 2h-14.16c-1.104 0-1.44-.7-.751-1.562l10.751-13.438z" fill-rule="evenodd"/></svg>